<?xml version="1.0" encoding="UTF-8"?><svg id="Livello_2" xmlns="http://www.w3.org/2000/svg" viewBox="0 0 146.1 120.85"><g id="Livello_1-2"><g><path d="m129.46,60.43l15.17-15.17c1.95-1.95,1.95-5.12,0-7.07s-5.12-1.95-7.07,0l-15.17,15.17-15.17-15.17c-1.95-1.95-5.12-1.95-7.07,0-1.95,1.95-1.95,5.12,0,7.07l15.17,15.17-15.17,15.17c-1.95,1.95-1.95,5.12,0,7.07.98.98,2.26,1.46,3.54,1.46s2.56-.49,3.54-1.46l15.17-15.17,15.17,15.17c.98.98,2.26,1.46,3.54,1.46s2.56-.49,3.54-1.46c1.95-1.95,1.95-5.12,0-7.07l-15.17-15.17Z"/><path d="m70.12,1.32c-5.87,6.17-14.37,14.93-22.31,21.82-12.58,10.92-25.16,11.03-25.16,11.03H4.24c-2.34,0-4.24,1.9-4.24,4.24v44.03c0,2.34,1.9,4.24,4.24,4.24h18.41s12.58.11,25.16,11.03c7.94,6.89,16.44,15.65,22.31,21.82,2.64,2.77,7.3.9,7.3-2.93V4.25c0-3.83-4.66-5.7-7.3-2.93Z"/></g></g></svg>